<svg id="visual" viewBox="0 0 960 540" width="960" height="540" xmlns="http://www.w3.org/2000/svg" xmlns:xlink="http://www.w3.org/1999/xlink" version="1.1"><path d="M0 93L14.5 111.8C29 130.7 58 168.3 87.2 189.8C116.3 211.3 145.7 216.7 174.8 212.2C204 207.7 233 193.3 262 185.3C291 177.3 320 175.7 349 182C378 188.3 407 202.7 436.2 189.2C465.3 175.7 494.7 134.3 523.8 117.2C553 100 582 107 611 109.7C640 112.3 669 110.7 698 108C727 105.3 756 101.7 785.2 115.2C814.3 128.7 843.7 159.3 872.8 161.2C902 163 931 136 945.5 122.5L960 109L960 0L945.5 0C931 0 902 0 872.8 0C843.7 0 814.3 0 785.2 0C756 0 727 0 698 0C669 0 640 0 611 0C582 0 553 0 523.8 0C494.7 0 465.3 0 436.2 0C407 0 378 0 349 0C320 0 291 0 262 0C233 0 204 0 174.8 0C145.7 0 116.3 0 87.2 0C58 0 29 0 14.5 0L0 0Z" fill="#73c5fe"></path><path d="M0 287L14.5 293.3C29 299.7 58 312.3 87.2 315C116.3 317.7 145.7 310.3 174.8 322C204 333.7 233 364.3 262 373.3C291 382.3 320 369.7 349 356.2C378 342.7 407 328.3 436.2 317.7C465.3 307 494.7 300 523.8 292C553 284 582 275 611 263.2C640 251.3 669 236.7 698 242.8C727 249 756 276 785.2 285C814.3 294 843.7 285 872.8 288.7C902 292.3 931 308.7 945.5 316.8L960 325L960 107L945.5 120.5C931 134 902 161 872.8 159.2C843.7 157.3 814.3 126.7 785.2 113.2C756 99.7 727 103.3 698 106C669 108.7 640 110.3 611 107.7C582 105 553 98 523.8 115.2C494.7 132.3 465.3 173.7 436.2 187.2C407 200.7 378 186.3 349 180C320 173.7 291 175.3 262 183.3C233 191.3 204 205.7 174.8 210.2C145.7 214.7 116.3 209.3 87.2 187.8C58 166.3 29 128.7 14.5 109.8L0 91Z" fill="#4eb8ff"></path><path d="M0 357L14.5 363.3C29 369.7 58 382.3 87.2 382.3C116.3 382.3 145.7 369.7 174.8 376C204 382.3 233 407.7 262 416.7C291 425.7 320 418.3 349 404C378 389.7 407 368.3 436.2 361.2C465.3 354 494.7 361 523.8 361C553 361 582 354 611 344.2C640 334.3 669 321.7 698 319.8C727 318 756 327 785.2 336.8C814.3 346.7 843.7 357.3 872.8 369.8C902 382.3 931 396.7 945.5 403.8L960 411L960 323L945.5 314.8C931 306.7 902 290.3 872.8 286.7C843.7 283 814.3 292 785.2 283C756 274 727 247 698 240.8C669 234.7 640 249.3 611 261.2C582 273 553 282 523.8 290C494.7 298 465.3 305 436.2 315.7C407 326.3 378 340.7 349 354.2C320 367.7 291 380.3 262 371.3C233 362.3 204 331.7 174.8 320C145.7 308.3 116.3 315.7 87.2 313C58 310.3 29 297.7 14.5 291.3L0 285Z" fill="#00aaff"></path><path d="M0 492L14.5 486.7C29 481.3 58 470.7 87.2 464.5C116.3 458.3 145.7 456.7 174.8 461.2C204 465.7 233 476.3 262 484.3C291 492.3 320 497.7 349 491.3C378 485 407 467 436.2 461.7C465.3 456.3 494.7 463.7 523.8 465.5C553 467.3 582 463.7 611 457.3C640 451 669 442 698 440.2C727 438.3 756 443.7 785.2 456.3C814.3 469 843.7 489 872.8 494.5C902 500 931 491 945.5 486.5L960 482L960 409L945.5 401.8C931 394.7 902 380.3 872.8 367.8C843.7 355.3 814.3 344.7 785.2 334.8C756 325 727 316 698 317.8C669 319.7 640 332.3 611 342.2C582 352 553 359 523.8 359C494.7 359 465.3 352 436.2 359.2C407 366.3 378 387.7 349 402C320 416.3 291 423.7 262 414.7C233 405.7 204 380.3 174.8 374C145.7 367.7 116.3 380.3 87.2 380.3C58 380.3 29 367.7 14.5 361.3L0 355Z" fill="#0093dc"></path><path d="M0 541L14.5 541C29 541 58 541 87.2 541C116.3 541 145.7 541 174.8 541C204 541 233 541 262 541C291 541 320 541 349 541C378 541 407 541 436.2 541C465.3 541 494.7 541 523.8 541C553 541 582 541 611 541C640 541 669 541 698 541C727 541 756 541 785.2 541C814.3 541 843.7 541 872.8 541C902 541 931 541 945.5 541L960 541L960 480L945.5 484.5C931 489 902 498 872.8 492.5C843.7 487 814.3 467 785.2 454.3C756 441.7 727 436.3 698 438.2C669 440 640 449 611 455.3C582 461.7 553 465.3 523.8 463.5C494.7 461.7 465.3 454.3 436.2 459.7C407 465 378 483 349 489.3C320 495.7 291 490.3 262 482.3C233 474.3 204 463.7 174.8 459.2C145.7 454.7 116.3 456.3 87.2 462.5C58 468.7 29 479.3 14.5 484.7L0 490Z" fill="#007dba"></path></svg>